<?xml version="1.0" encoding="utf-8"?>
<!-- Generated by IcoMoon.io -->
<!DOCTYPE svg PUBLIC "-//W3C//DTD SVG 1.1//EN" "http://www.w3.org/Graphics/SVG/1.1/DTD/svg11.dtd">
<svg version="1.1" xmlns="http://www.w3.org/2000/svg" xmlns:xlink="http://www.w3.org/1999/xlink" width="37" height="32" viewBox="0 0 37 32">
<path fill="#fff" d="M18.286 9.143h-6.857v6.857h6.857v-6.857zM20.571 20.571v2.286h-11.429v-2.286h11.429zM20.571 6.857v11.429h-11.429v-11.429h11.429zM32 20.571v2.286h-9.143v-2.286h9.143zM32 16v2.286h-9.143v-2.286h9.143zM32 11.429v2.286h-9.143v-2.286h9.143zM32 6.857v2.286h-9.143v-2.286h9.143zM4.571 24v-17.143h-2.286v17.143q0 0.464 0.339 0.804t0.804 0.339 0.804-0.339 0.339-0.804zM34.286 24v-19.429h-27.429v19.429q0 0.589-0.196 1.143h26.482q0.464 0 0.804-0.339t0.339-0.804zM36.571 2.286v21.714q0 1.429-1 2.429t-2.429 1h-29.714q-1.429 0-2.429-1t-1-2.429v-19.429h4.571v-2.286h32z"></path>
</svg>
