<?xml version="1.0" encoding="utf-8"?>
<!-- Generator: Adobe Illustrator 16.0.4, SVG Export Plug-In . SVG Version: 6.00 Build 0)  -->
<!DOCTYPE svg PUBLIC "-//W3C//DTD SVG 1.1//EN" "http://www.w3.org/Graphics/SVG/1.1/DTD/svg11.dtd">
<svg version="1.1" id="Layer_1" xmlns="http://www.w3.org/2000/svg" xmlns:xlink="http://www.w3.org/1999/xlink" x="0px" y="0px"
	 width="16.998px" height="63.992px" viewBox="0 0 16.998 63.992" style="enable-background:new 0 0 16.998 63.992;"
	 xml:space="preserve">
<style type="text/css">
<![CDATA[
	.st0{fill:#FEFEFE;}
	.st1{fill:#FFFFFF;}
]]>
</style>
<g>
	<path class="st1" d="M4.417,12.463l0.389-0.482c0.421-0.521,4.11-5.162,4.11-7.48c0-2.481-2.019-4.5-4.5-4.5s-4.5,2.019-4.5,4.5
		c0,2.318,3.689,6.959,4.11,7.48L4.417,12.463z M4.417,1c1.93,0,3.5,1.57,3.5,3.5c0,1.493-2.252,4.734-3.5,6.357
		c-1.247-1.623-3.5-4.863-3.5-6.357C0.917,2.57,2.487,1,4.417,1z"/>
	<path class="st1" d="M6.833,4.5c0-1.332-1.084-2.416-2.416-2.416S2,3.168,2,4.5s1.084,2.416,2.416,2.416S6.833,5.832,6.833,4.5z
		 M3,4.5c0-0.781,0.635-1.416,1.416-1.416S5.833,3.719,5.833,4.5S5.197,5.916,4.417,5.916S3,5.281,3,4.5z"/>
	<path class="st1" d="M11.445,7.789L9.641,6.886L9.193,7.781L11,8.684v8.006L7.833,14.9v-3.963h-1V15.2l-2.917,1.75v-3.367h-1v5.133
		l4.674-2.805l3.8,2.147l4.526-2.027v-9.92L11.445,7.789z M14.917,15.385L12,16.691V8.649l2.917-1.094V15.385z"/>
</g>
<g>
	<path class="st0" d="M8.342,53.431c1.057,0,1.916-0.859,1.916-1.916s-0.859-1.916-1.916-1.916c-1.057,0-1.917,0.859-1.917,1.916
		S7.285,53.431,8.342,53.431z M8.342,50.599c0.505,0,0.916,0.411,0.916,0.916s-0.411,0.916-0.916,0.916
		c-0.506,0-0.917-0.411-0.917-0.916S7.836,50.599,8.342,50.599z"/>
	<path class="st0" d="M13,62.24v-1.271h1.803V46.947H1.879v14.021h0.038v3.044H15V62.24H13z M2.879,47.947h10.924v12.021H2.879
		V47.947z"/>
	<polygon class="st0" points="4.216,56.083 5.549,56.083 5.549,57.666 11.133,57.666 11.133,56.083 12.467,56.083 12.467,55.083 
		4.216,55.083 	"/>
</g>
<g>
	<path class="st1" d="M3.138,40.11C3.138,40.11,3.138,40.11,3.138,40.11H3.024c-0.085,0-0.785-0.135-1.099-0.449l-1.046-1.045
		c-0.512-0.511-0.734-1.451-0.505-2.142l0.073-0.221c0.229-0.679,0.918-1.33,1.606-1.518l1.931-0.528
		c0.69-0.19,1.646,0.069,2.137,0.562l0.489,0.488c2.14-0.676,3.831-2.368,4.506-4.508l-0.487-0.488
		c-0.502-0.502-0.75-1.44-0.563-2.136l0.528-1.933c0.185-0.686,0.837-1.376,1.517-1.604l0.219-0.073
		c0.69-0.229,1.645,0.002,2.146,0.507l1.044,1.045c0.316,0.312,0.453,0.985,0.453,1.071c0.036,3.428-1.333,6.789-3.758,9.216
		C9.792,38.776,6.568,40.11,3.138,40.11z M4.491,35.144c-0.091,0-0.174,0.01-0.245,0.029l-1.93,0.528
		c-0.362,0.099-0.801,0.513-0.92,0.868l-0.072,0.22c-0.113,0.338,0.013,0.871,0.262,1.119l1.046,1.046
		c0.064,0.049,0.341,0.138,0.477,0.163l0.029-0.007c3.164,0.001,6.136-1.229,8.369-3.463c2.223-2.225,3.483-5.301,3.465-8.448
		c-0.043-0.172-0.12-0.374-0.164-0.428l-1.041-1.042c-0.239-0.24-0.8-0.371-1.121-0.265l-0.218,0.073
		c-0.358,0.12-0.772,0.558-0.87,0.918l-0.527,1.933c-0.096,0.355,0.05,0.913,0.305,1.167l0.902,0.902l-0.076,0.279
		c-0.729,2.703-2.862,4.836-5.565,5.567l-0.279,0.076l-0.904-0.903C5.22,35.284,4.833,35.144,4.491,35.144z"/>
</g>
</svg>
