<?xml version="1.0" encoding="utf-8"?>
<!-- Generator: Adobe Illustrator 16.0.4, SVG Export Plug-In . SVG Version: 6.00 Build 0)  -->
<!DOCTYPE svg PUBLIC "-//W3C//DTD SVG 1.1//EN" "http://www.w3.org/Graphics/SVG/1.1/DTD/svg11.dtd">
<svg version="1.1" id="Layer_1" xmlns="http://www.w3.org/2000/svg" xmlns:xlink="http://www.w3.org/1999/xlink" x="0px" y="0px"
	 width="228.2px" height="19px" viewBox="0 -1 228.2 19" style="enable-background:new 0 -1 228.2 19;" xml:space="preserve">
<style type="text/css">
<![CDATA[
	.st0{fill:#FFFFFF;}
	.st1{fill:#9E1C35;}
]]>
</style>
<g>
	<rect y="-1" class="st1" width="16.5" height="19"/>
	<g>
		<polygon class="st0" points="13.4,1.2 3.1,1.2 2,1.2 2,2.2 2,6.4 3.1,6.4 3.1,2.2 13.4,2.2 13.4,6.3 14.5,6.3 14.5,2.2 14.5,1.2 
					"/>
		<polygon class="st0" points="4.8,12.5 4.8,13.5 6.6,13.5 7.7,13.5 7.7,12.5 7.7,4.6 7.7,3.6 6.6,3.6 5.4,3.6 4.4,3.6 4.4,4.6 
			4.4,6.3 5.4,6.3 5.4,4.6 6.6,4.6 6.6,12.5 		"/>
		<polygon class="st0" points="9.9,3.5 8.9,3.5 8.9,4.6 8.9,12.5 8.9,13.5 9.9,13.5 11.7,13.5 11.7,12.5 9.9,12.5 9.9,4.6 11.2,4.6 
			11.2,6.3 12.3,6.3 12.3,4.6 12.3,3.5 11.2,3.5 		"/>
		<rect x="4.8" y="14.8" class="st0" width="6.9" height="1"/>
	</g>
	<g>
		<path d="M228.2,1.8h-4.8v0.7c1.6,0.2,1.7,0.4,1.2,1.3c-0.6,1.3-1.7,3.4-2.3,4.6c-0.9-1.6-1.8-3.2-2.6-4.8c-0.3-0.8-0.4-1,1-1.2
			V1.8H215v0.7c1.2,0.1,1.6,0.3,2.3,1.8c1.2,2.1,2,3.6,2.6,4.7c0.2,0.6,0.3,0.7,0.3,1.2v2.5c0,1.9-0.2,2-2,2.1v0.7h6.5v-0.7
			c-1.9-0.1-2-0.2-2-2.1V9.8c0-0.6,0.1-0.9,0.3-1.3c1-1.9,1.7-3,2.5-4.4c0.8-1.2,1.1-1.6,2.6-1.7L228.2,1.8L228.2,1.8z M214.7,5.1
			c-0.1-1.3-0.2-3-0.2-4H214c-0.3,0.4-0.6,0.6-1.1,0.6h-8.4c-0.6,0-0.9,0-1.2-0.6h-0.4c0,1.1-0.2,2.6-0.2,4h0.7c0.2-1,0.4-1.7,0.8-2
			c0.3-0.4,0.7-0.6,2.5-0.6h0.9v10.2c0,1.8-0.2,1.9-2,2v0.7h6.6v-0.7c-1.9-0.1-2.1-0.3-2.1-2V2.6h1.1c1.3,0,1.8,0.1,2.2,0.6
			c0.3,0.3,0.6,1,0.9,2.1L214.7,5.1z M201,15.4v-0.7c-1.7-0.1-1.8-0.2-1.8-2.1V4.5c0-1.8,0.2-1.9,1.8-2.1V1.8h-6v0.7
			c1.7,0.1,1.8,0.2,1.8,2.1v8.3c0,1.8-0.2,1.9-1.8,2.1v0.7h6V15.4z M193.1,4.9c-0.2-1.3-0.3-2.2-0.4-3c-0.6-0.2-1.7-0.6-2.8-0.6
			c-2.9,0-4.7,1.8-4.7,4c0,2.1,1.7,3.2,3.6,4.2c1.6,0.9,2.6,1.7,2.6,3c0,1.5-0.9,2.3-2.2,2.3c-2,0-3.2-2.2-3.6-3.6l-0.7,0.2
			c0.1,1.2,0.4,2.9,0.6,3.5c0.2,0.1,0.7,0.2,1.2,0.4c0.6,0.1,1.2,0.3,2.1,0.3c3,0,5-1.8,5-4.1c0-2.2-1.7-3.4-3.7-4.4
			c-1.8-0.9-2.7-1.6-2.7-2.9c0-1.2,0.8-2.1,2.1-2.1c1.8,0,2.5,1.6,2.9,2.9L193.1,4.9z M175.7,8.7V3.6c0-0.4,0-0.7,0.2-0.9
			c0.1-0.1,0.4-0.2,1-0.2c1.3,0,2.7,0.8,2.7,3.1c0,1.1-0.3,1.9-1,2.6c-0.4,0.4-1.2,0.6-2.1,0.6H175.7z M184.3,15
			c-0.4-0.1-0.9-0.4-1.3-0.9c-0.4-0.4-0.9-1.1-1.7-2.2c-0.7-1-1.5-2.3-1.8-3c1.5-0.6,2.7-1.7,2.7-3.5c0-1.3-0.6-2.2-1.5-2.8
			c-0.8-0.6-1.9-0.8-3.6-0.8h-5.7v0.7c1.6,0.1,1.8,0.3,1.8,2v8.3c0,1.8-0.2,1.9-1.8,2.1v0.7h6v-0.7c-1.7-0.1-1.8-0.3-1.8-2.1V9.5
			h0.4c0.9,0,1.2,0.2,1.6,0.9c0.6,1.1,1.2,2.2,1.9,3.2c0.9,1.3,1.7,1.9,4,2c0.2,0,0.4,0,0.7,0V15L184.3,15z M169.6,11.9
			c-0.3,0.9-0.8,1.6-1.1,2c-0.4,0.6-1.1,0.7-2.5,0.7c-0.9,0-1.7,0-2-0.2c-0.4-0.2-0.6-0.7-0.6-1.7V8.9h1.7c1.8,0,2,0.1,2.3,1.6h0.7
			V6.4h-0.7c-0.2,1.5-0.4,1.6-2.3,1.6h-1.7V3.4c0-0.7,0.1-0.7,0.8-0.7h1.2c1.3,0,1.9,0.1,2.2,0.6c0.3,0.4,0.6,1,0.8,1.8l0.7-0.1
			c-0.1-1.2-0.2-2.7-0.2-3.1h-9.7v0.7c1.6,0.1,1.8,0.2,1.8,2.1v8.2c0,1.8-0.2,1.9-2,2.1v0.7h10.5c0.2-0.7,0.6-2.6,0.8-3.5
			L169.6,11.9z M158.9,1.8H154v0.7c1.7,0.2,1.8,0.4,1.3,1.8c-0.6,1.9-1.8,5-2.9,7.9h-0.1c-1-2.6-2.6-6.8-3.2-8.4
			c-0.3-0.9-0.3-1.1,1.2-1.3V1.8h-5.9v0.7c1.3,0.1,1.7,0.3,2.2,2c1,2.5,2.9,7.4,4.4,11.3h0.9c1.7-4.4,3.7-9.4,4.2-11
			c0.9-2,1.2-2.2,2.6-2.3V1.8H158.9z M143.8,15.4v-0.7c-1.7-0.1-1.8-0.2-1.8-2.1V4.5c0-1.8,0.1-1.9,1.8-2.1V1.8h-6v0.7
			c1.7,0.1,1.8,0.2,1.8,2.1v8.3c0,1.8-0.2,1.9-1.8,2.1v0.7h6V15.4z M136.6,1.8h-5v0.7c1.6,0.1,2,0.4,2.1,1.3c0,0.6,0.1,1.6,0.1,3.5
			v4.2h-0.1l-8.3-9.7h-3.6v0.7c0.9,0.1,1.3,0.2,1.8,0.8c0.3,0.4,0.4,0.8,0.4,2.2V10c0,1.9-0.1,2.9-0.2,3.6c-0.1,0.9-0.6,1.2-1.8,1.3
			v0.7h5v-0.7c-1.5-0.1-1.9-0.4-2-1.5c-0.1-0.7-0.1-1.6-0.1-3.5v-5l0,0l8.8,10.7h0.9V7.3c0-1.9,0.1-2.9,0.1-3.6
			c0.1-1,0.6-1.2,1.7-1.3L136.6,1.8L136.6,1.8z M121.1,1.8H116v0.7c1.5,0.1,1.9,0.4,2,1.2c0.1,0.7,0.2,1.5,0.2,3.1v2
			c0,3.6-1,5.7-3.7,5.7c-2.5,0-3.6-1.9-3.6-5.1V4.6c0-1.9,0.2-2.1,1.8-2.2V1.8h-6v0.7c1.6,0.1,1.8,0.2,1.8,2.2v5.1
			c0,2.5,0.6,4,1.8,5c1,0.8,2.2,1,3.6,1c1.5,0,2.9-0.6,3.9-1.5c1.2-1.2,1.6-3,1.6-5.4V6.8c0-1.7,0.1-2.5,0.1-3.1
			c0.1-0.8,0.6-1.1,1.8-1.2V1.8H121.1z M100.2,11.9c-0.3,0.9-0.8,1.6-1.1,2c-0.4,0.6-1.1,0.7-2.5,0.7c-0.9,0-1.7,0-2-0.2
			c-0.4-0.2-0.6-0.7-0.6-1.7V8.9h1.7c1.8,0,2,0.1,2.3,1.6h0.7V6.4h-0.7c-0.2,1.5-0.4,1.6-2.3,1.6h-1.7V3.4c0-0.7,0.1-0.7,0.8-0.7
			h1.2c1.3,0,1.9,0.1,2.2,0.6c0.3,0.4,0.6,1,0.8,1.8l0.7-0.1c-0.1-1.2-0.2-2.7-0.2-3.1h-9.7v0.7c1.6,0.1,1.8,0.2,1.8,2.1v8.2
			c0,1.8-0.2,1.9-2,2.1v0.7h10.5c0.2-0.7,0.6-2.6,0.8-3.5L100.2,11.9z M88.3,11.7c-0.3,1-0.8,1.7-1.1,2.1c-0.4,0.6-1.2,0.7-2.2,0.7
			c-0.8,0-1.3,0-1.7-0.2c-0.4-0.2-0.6-0.6-0.6-1.7V4.5c0-1.8,0.2-1.9,1.8-2.1V1.8h-6.1v0.7c1.7,0.1,1.8,0.2,1.8,2.1v8.3
			c0,1.8-0.2,1.9-2,2.1v0.7h10.2c0.2-0.6,0.6-2.7,0.8-3.5L88.3,11.7z M70.4,3.5c0-0.4,0.1-0.7,0.2-0.8c0.1-0.1,0.4-0.2,0.9-0.2
			c1.5,0,2.8,0.9,2.8,3.2c0,2.8-1.7,3.4-2.7,3.4c-0.6,0-1-0.1-1.2-0.2V3.5z M66.3,1.8v0.7c1.5,0.1,1.7,0.2,1.7,2.1v8.3
			c0,1.8-0.2,1.9-1.8,2.1v0.7h6.3V15c-1.8-0.1-2-0.2-2-2.1V9.6l1.5,0.3c0.2,0,0.6,0,0.9,0C74.9,9.7,77,8.4,77,5.6
			c0-1.3-0.6-2.5-1.5-3.1c-0.9-0.6-2-0.8-3.7-0.8L66.3,1.8L66.3,1.8z M64.8,15.4v-0.7c-1.7-0.2-1.8-0.3-1.9-2.3l-0.2-7.8
			c0-1.9,0-2,1.8-2.2V1.8h-4l-4.4,9.7l-4.4-9.7h-4v0.7c1.8,0.2,2,0.4,1.8,2.9l-0.3,4.2c-0.1,2.2-0.3,3.2-0.4,3.9
			c-0.1,0.8-0.6,1.1-1.8,1.2v0.7h5v-0.7c-1.5-0.1-1.9-0.3-1.9-1.2c-0.1-0.8-0.1-1.7,0-3.5l0.4-5.7h0.1l4.5,11h0.6l4.8-11.2h0.1v8.3
			c0,2-0.1,2.2-1.7,2.3v0.7H64.8z M45.7,11.9c-0.3,0.9-0.8,1.6-1.1,2c-0.4,0.6-1.1,0.7-2.5,0.7c-0.9,0-1.7,0-2-0.2
			c-0.4-0.2-0.6-0.7-0.6-1.7V8.9h1.7c1.8,0,2,0.1,2.3,1.6h0.7V6.4h-0.7c-0.2,1.5-0.4,1.6-2.3,1.6h-1.7V3.4c0-0.7,0.1-0.7,0.8-0.7
			h1.2c1.3,0,1.9,0.1,2.2,0.6c0.3,0.4,0.6,1,0.8,1.8l0.7-0.1C45.1,3.7,45,2.2,45,1.8h-9.7v0.7c1.6,0.1,1.8,0.2,1.8,2.1v8.2
			c0,1.8-0.2,1.9-2,2.1v0.7h10.5c0.2-0.7,0.6-2.6,0.8-3.5L45.7,11.9z M34,5.1c-0.1-1.3-0.2-3-0.2-4h-0.4c-0.3,0.4-0.6,0.6-1.1,0.6
			h-8.4c-0.6,0-0.9,0-1.2-0.6h-0.4c0,1.1-0.2,2.6-0.2,4h0.7c0.2-1,0.4-1.7,0.8-2c0.3-0.4,0.7-0.6,2.5-0.6h0.9v10.2
			c0,1.8-0.2,1.9-2,2v0.7h6.6v-0.7c-1.9-0.1-2.1-0.3-2.1-2V2.6h1.1c1.3,0,1.8,0.1,2.2,0.6c0.3,0.3,0.6,1,0.9,2.1L34,5.1z"/>
	</g>
</g>
</svg>
