<?xml version="1.0" encoding="UTF-8" standalone="no"?>
<svg width="20px" height="20px" viewBox="0 0 20 20" version="1.1" xmlns="http://www.w3.org/2000/svg" xmlns:xlink="http://www.w3.org/1999/xlink">
    <!-- Generator: Sketch 40.1 (33804) - http://www.bohemiancoding.com/sketch -->
    <title>Slice</title>
    <desc>Created with Sketch.</desc>
    <defs></defs>
    <g id="Page-1" stroke="none" stroke-width="1" fill="none" fill-rule="evenodd">
        <g id="temple-university-logo">
            <g id="Group">
                <rect id="Rectangle-path" fill="#9E1C35" x="0" y="0" width="20" height="20"></rect>
                <g transform="translate(3.500000, 2.500000)" fill="#FFFFFF">
                    <polygon id="Shape" points="11.4 0.2 1.1 0.2 0 0.2 0 1.2 0 5.4 1.1 5.4 1.1 1.2 11.4 1.2 11.4 5.3 12.5 5.3 12.5 1.2 12.5 0.2"></polygon>
                    <polygon id="Shape" points="2.8 11.5 2.8 12.5 4.6 12.5 5.7 12.5 5.7 11.5 5.7 3.6 5.7 2.6 4.6 2.6 3.4 2.6 2.4 2.6 2.4 3.6 2.4 5.3 3.4 5.3 3.4 3.6 4.6 3.6 4.6 11.5"></polygon>
                    <polygon id="Shape" points="7.9 2.5 6.9 2.5 6.9 3.6 6.9 11.5 6.9 12.5 7.9 12.5 9.7 12.5 9.7 11.5 7.9 11.5 7.9 3.6 9.2 3.6 9.2 5.3 10.3 5.3 10.3 3.6 10.3 2.5 9.2 2.5"></polygon>
                    <rect id="Rectangle-path" x="2.8" y="13.8" width="6.9" height="1"></rect>
                </g>
            </g>
        </g>
    </g>
</svg>